Coordinates
version=1
nRows=11
nColumns=36
inDegrees=yes

Units are S.I. units (second, meters, Newtons, ...)
If the header above contains a line with 'inDegrees', this indicates whether rotational values are in degrees (yes) or radians (no).

endheader
time	pelvis_tilt	pelvis_list	pelvis_rotation	pelvis_tx	pelvis_ty	pelvis_tz	hip_flexion_r	hip_adduction_r	hip_rotation_r	knee_angle_r	knee_angle_r_beta	ankle_angle_r	subtalar_angle_r	mtp_angle_r	hip_flexion_l	hip_adduction_l	hip_rotation_l	knee_angle_l	knee_angle_l_beta	ankle_angle_l	subtalar_angle_l	mtp_angle_l	lumbar_extension	lumbar_bending	lumbar_rotation	arm_flex_r	arm_add_r	arm_rot_r	elbow_flex_r	pro_sup_r	arm_flex_l	arm_add_l	arm_rot_l	elbow_flex_l	pro_sup_l
      1.32833330	    -14.45866522	      1.06312069	      3.72328049	     -0.19635761	      1.31353012	     -0.05855990	     30.85550917	     -5.93378219	     -5.54532202	     34.30733579	      0.59877597	     -8.45943672	      4.01946638	     -7.49999987	     29.04897599	     -3.19366760	     -6.09220756	     41.29227554	      0.72068616	     -3.08690704	     -7.59480277	     -7.49999987	     -9.24615542	      2.54797322	     -3.68398196	      3.03662970	    -34.95479808	      1.17125625	     89.39617828	     84.08988348	     11.17183378	    -36.83481600	      1.90689007	    108.62240027	     77.06101599
      1.33000000	    -14.41927386	      0.98159370	      3.73636359	     -0.18868481	      1.30916062	     -0.05922903	     30.89702459	     -5.93735943	     -5.72912821	     33.80513520	      0.59001091	     -8.54248994	      3.78675198	     -7.49999987	     29.37580380	     -3.30640901	     -5.93837466	     41.44057020	      0.72327439	     -2.71146238	     -7.22055235	     -7.49999987	     -9.64739458	      2.71670225	     -3.71704661	      0.87167415	    -34.72322155	     -0.82831293	     89.54816271	     84.65167835	      8.40128013	    -36.83220287	      0.02467120	    110.05920615	     77.87859687
      1.33166670	    -14.20219141	      0.97807733	      3.79341352	     -0.18288580	      1.30460001	     -0.05939001	     30.77348551	     -6.01046240	     -5.78939232	     33.13461154	      0.57830807	     -8.02159411	      3.72054488	     -7.49999987	     29.40076422	     -3.13504809	     -5.84567690	     41.05506963	      0.71654614	     -2.92810297	     -6.55672335	     -7.49999987	     -9.74992426	      2.77322130	     -3.60020465	     -0.71336459	    -35.27078117	     -0.95635907	     88.76551601	     84.63699743	      6.87982646	    -37.23410633	      0.03255147	    109.91831705	     77.92563734
      1.33333330	    -14.24899989	      0.98958052	      3.78680309	     -0.17627546	      1.29893548	     -0.05938611	     30.97246759	     -6.16599765	     -5.90834390	     32.53273388	      0.56780332	     -7.85735896	      3.88288085	     -7.49999987	     29.78079004	     -3.12984231	     -5.91434556	     40.87975220	      0.71348627	     -2.46509654	     -4.96703029	     -7.49999987	     -9.60154997	      2.74137664	     -3.60768819	     -2.43347862	    -35.28712018	     -2.09735376	     88.22793982	     84.66107202	      4.78447147	    -37.52340189	     -1.00716173	    110.28147538	     78.23117890
      1.33500000	    -14.06348530	      0.96424260	      4.00717128	     -0.17120261	      1.29727443	     -0.05912105	     30.79384186	     -6.27082452	     -5.86345936	     31.65317383	      0.55245210	     -7.99654998	      4.13250560	     -7.49999987	     29.81255582	     -3.01161283	     -5.76752389	     40.13962521	      0.70056862	     -3.05953610	     -4.79834237	     -7.49999987	     -9.97738663	      2.82841840	     -3.58590923	     -4.20834098	    -35.68532130	     -2.81134628	     87.98808745	     83.42159463	      3.14325988	    -37.91016453	     -1.50789333	    110.53539867	     77.66012746
      1.33666670	    -13.84723562	      0.94897295	      4.10896706	     -0.16525653	      1.29066384	     -0.05863420	     30.75945806	     -6.32734436	     -5.76204288	     31.01946933	      0.54139187	     -8.33711241	      4.32473888	     -7.49999987	     29.85102869	     -2.96560457	     -5.67901762	     39.39077749	      0.68749876	     -3.34574172	     -4.57104065	     -7.49999987	    -10.01949324	      2.86470541	     -3.52551830	     -5.74682747	    -36.27876792	     -2.95998418	     87.24781302	     83.55584357	      1.80152030	    -38.41673028	     -1.70751389	    110.31269144	     77.81447777
      1.33833330	    -13.80203913	      0.87705427	      4.13966289	     -0.16022919	      1.29162178	     -0.05737328	     30.60245023	     -6.22375430	     -5.75277663	     29.92183993	      0.52223463	     -9.18785901	      4.47439186	     -7.49999987	     29.75984866	     -3.04182134	     -5.90968954	     37.92203091	      0.66186430	     -4.11600149	     -4.05339587	     -7.49999987	    -10.35899145	      2.94930974	     -3.56651697	     -7.38846200	    -36.10867947	     -4.13320815	     86.67161318	     82.97078793	     -0.16457742	    -38.56098610	     -2.92554482	    110.36992310	     77.89887436
      1.34000000	    -13.39962955	      0.87459071	      4.19724845	     -0.15698764	      1.29018862	     -0.05435348	     30.17699003	     -6.05998239	     -5.94843929	     28.54597491	      0.49822125	    -10.17231196	      4.48001760	     -7.49999987	     29.27756469	     -3.16614419	     -6.16185013	     36.26210806	      0.63289318	     -4.96960349	     -3.47560851	     -7.49999987	    -11.06207850	      2.83924840	     -3.51911418	     -8.67743699	    -36.20649860	     -4.32766208	     85.76028311	     82.36068444	     -1.40346564	    -39.08505186	     -3.39498453	    110.06460730	     77.74132628
      1.34166670	    -13.13634783	      0.97629671	      3.96021629	     -0.15044228	      1.28216104	     -0.05523208	     30.22614834	     -6.06871986	     -5.88131066	     28.14214726	      0.49117313	    -11.02395545	      4.17066239	     -7.49999987	     29.05000783	     -3.18649084	     -6.43464117	     35.22535192	      0.61479837	     -5.14750463	     -2.90638070	     -7.49999987	    -11.41885861	      2.74061814	     -3.23977257	     -9.95968916	    -36.46058848	     -4.50820647	     84.94862638	     82.70746117	     -2.96897854	    -39.34280702	     -4.07889996	    109.76743394	     78.13850841
      1.34333330	    -12.83768271	      1.11535794	      3.72862945	     -0.14557960	      1.27877377	     -0.05516104	     30.22198346	     -6.19649123	     -6.17995913	     27.53499885	      0.48057639	    -11.97024357	      3.87403749	     -7.49999987	     28.79905250	     -3.12878396	     -6.75507838	     34.19163537	      0.59675661	     -5.83815363	     -2.42746631	     -7.49999987	    -12.03674344	      2.66869415	     -2.94889654	    -11.36127143	    -36.83594159	     -4.68611946	     84.14453718	     83.06494292	     -4.64265391	    -39.63235673	     -4.45475086	    109.62487587	     78.49311260
      1.34500000	    -12.50923780	      1.22218828	      3.36471407	     -0.14049928	      1.27325811	     -0.05288888	     30.32116249	     -6.03679010	     -5.78290720	     26.99845833	      0.47121199	    -13.00681700	      2.77857522	     -7.49999987	     28.51149517	     -3.27952464	     -7.07338550	     33.36124467	      0.58226356	     -6.51379799	     -1.97448224	     -7.49999987	    -12.81213125	      2.47057948	     -2.99975281	    -12.20988458	    -36.47586933	     -5.63293547	     83.51626066	     83.70942007	     -7.55452673	    -39.67357653	     -7.08595486	    110.01457149	     79.44035544
